<svg height="512" viewBox="0 0 128 128" width="512" xmlns="http://www.w3.org/2000/svg"><path d="m120.042 49.966h-.986a13.02 13.02 0 0 0 -10.148-12.014 13.371 13.371 0 0 0 -2.936-.331h-63.128a9.123 9.123 0 0 0 -4.892-1.421h-21.552a3.247 3.247 0 0 0 -3.244 3.244v10.522h-.956a4.464 4.464 0 0 0 -4.459 4.459v11.461a4.464 4.464 0 0 0 4.459 4.459h.948v.948q0 .972.065 1.927a24.128 24.128 0 0 0 13.561 20.09 25.776 25.776 0 0 0 11.5 2.737 25.265 25.265 0 0 0 13.88-4.175c8.124-5.321 12.078-6.438 13.965-6.438s5.847 1.118 13.985 6.445a25.293 25.293 0 0 0 25.363 1.43 24.126 24.126 0 0 0 13.556-20.083q.064-.957.065-1.933v-.948h.953a4.463 4.463 0 0 0 4.458-4.459v-11.461a4.463 4.463 0 0 0 -4.457-4.459z" fill="#e6e7e8"/><path d="m113.682 46.413v20.555q0 .938-.062 1.859c-1.226 18.065-22.1 27.738-37.247 17.822-5.15-3.371-11.035-6.622-14.578-6.622s-9.416 3.247-14.558 6.615c-15.155 9.928-36.045.258-37.268-17.82q-.061-.919-.062-1.854v-20.555a12.024 12.024 0 0 1 9.337-11.731 12.358 12.358 0 0 1 2.7-.3h79.7a12.351 12.351 0 0 1 2.7.3 12.024 12.024 0 0 1 9.338 11.731z" fill="#0089ef"/><path d="m76.373 83.405c-5.15-3.371-11.035-6.622-14.578-6.622s-9.416 3.247-14.558 6.617c-15.155 9.928-36.045.255-37.268-17.82q-.061-.919-.062-1.854v3.244q0 .934.062 1.854c1.223 18.076 22.113 27.746 37.268 17.818 5.142-3.368 11.017-6.615 14.558-6.615s9.428 3.251 14.578 6.622c15.15 9.916 36.022.243 37.247-17.822q.061-.921.062-1.859v-3.244q0 .938-.062 1.859c-1.22 18.065-22.097 27.738-37.247 17.822z" fill="#fff"/><path d="m33.969 84.089c-7.962 0-16.794-5.5-17.484-15.708-.034-.475-.049-.942-.049-1.413v-20.555a5.464 5.464 0 0 1 4.257-5.365 5.835 5.835 0 0 1 1.25-.141h79.7a5.9 5.9 0 0 1 1.269.145 5.46 5.46 0 0 1 4.239 5.361v20.555q0 .71-.049 1.408c-.691 10.209-9.523 15.713-17.48 15.713a17.638 17.638 0 0 1 -9.678-2.9c-10.524-6.895-15.398-7.689-18.144-7.689s-7.622.8-18.137 7.683a17.648 17.648 0 0 1 -9.694 2.906z" fill="#6dc9f7"/><path d="m20.226 77.841a18.222 18.222 0 0 0 13.584 6.241l16.3-43.175h-16.2z" fill="#d4fbff"/><path d="m68.571 75a64.01 64.01 0 0 1 11.376 6.187 18.1 18.1 0 0 0 1.735.99l15.472-41.27h-16.2z" fill="#d4fbff"/><path d="m38.718 83.425a17.838 17.838 0 0 0 4.941-2.245 83.394 83.394 0 0 1 7.176-4.255l13.193-36.018h-9.3z" fill="#d4fbff"/><path d="m115.97 46.722h-2.284v18.216h2.284a3.124 3.124 0 0 0 3.123-3.124v-11.969a3.123 3.123 0 0 0 -3.123-3.123z" fill="#fa759e"/><path d="m7.623 46.722a3.123 3.123 0 0 0 -3.123 3.123v11.969a3.124 3.124 0 0 0 3.123 3.124h2.284v-18.216z" fill="#fa759e"/><path d="m34.237 32.953h-22.33a2 2 0 0 0 -2 2v12.216a2 2 0 0 0 2 2h22.33a7.5 7.5 0 0 0 7.5-7.5v-1.22a7.5 7.5 0 0 0 -7.5-7.496z" fill="#ffd7e5"/><path d="m29.671 37.211a3.85 3.85 0 1 0 3.85 3.85 3.85 3.85 0 0 0 -3.85-3.85z" fill="#d4fbff"/><g fill="#3a2c60"><path d="m72.79 35.377h8.831a1 1 0 0 0 0-2h-8.831a1 1 0 0 0 0 2z"/><path d="m76.559 46.281a1.224 1.224 0 0 0 -.493-.585 1.36 1.36 0 0 0 -.716-.2 1.625 1.625 0 0 0 -1.041.372 1.144 1.144 0 0 0 -.464.93 1.169 1.169 0 0 0 .13.538l5.025 10.601a1.461 1.461 0 0 0 .612.66 1.835 1.835 0 0 0 1.786 0 1.461 1.461 0 0 0 .612-.66l5.02-10.6a1.314 1.314 0 0 0 .13-.557 1.143 1.143 0 0 0 -.446-.911 1.529 1.529 0 0 0 -1.014-.369 1.307 1.307 0 0 0 -.7.2 1.236 1.236 0 0 0 -.484.585l-3.979 8.7z"/><path d="m99.258 49.553a3.644 3.644 0 0 0 -1.181-2.928 5.226 5.226 0 0 0 -3.486-1.013h-4.666a1.231 1.231 0 0 0 -1.357 1.357v10.411a1.348 1.348 0 0 0 1.451 1.449 1.378 1.378 0 0 0 1.032-.39 1.456 1.456 0 0 0 .381-1.059v-3.756h1.506a1.707 1.707 0 0 1 .892.214 2.191 2.191 0 0 1 .669.7l2.454 3.644a1.379 1.379 0 0 0 .558.52 1.547 1.547 0 0 0 1.663-.167 1.045 1.045 0 0 0 .419-.855 1.413 1.413 0 0 0 -.279-.8l-1.414-2.122a3.792 3.792 0 0 0 -.845-.939 2.46 2.46 0 0 0 -1-.436 4.021 4.021 0 0 0 2.362-1.32 3.793 3.793 0 0 0 .841-2.51zm-3.29 1.441a2.946 2.946 0 0 1 -1.8.436h-2.774v-3.606h2.771a2.993 2.993 0 0 1 1.8.428 1.966 1.966 0 0 1 0 2.742z"/><path d="m115.97 45.722h-1.317a12.939 12.939 0 0 0 -10.089-12.016 13.3 13.3 0 0 0 -2.918-.329h-15.384a1 1 0 0 0 0 2h15.384a11.3 11.3 0 0 1 2.477.28 10.963 10.963 0 0 1 8.56 10.756v20.555q0 .9-.061 1.791a22.065 22.065 0 0 1 -12.407 18.362 23.229 23.229 0 0 1 -23.294-1.309c-6.88-4.5-11.969-6.785-15.126-6.785s-8.239 2.281-15.106 6.779a23.245 23.245 0 0 1 -23.313 1.315 22.064 22.064 0 0 1 -12.409-18.367q-.06-.885-.06-1.786v-16.984a2.971 2.971 0 0 0 1 .185h22.33a8.507 8.507 0 0 0 8.5-8.5v-1.22a8.447 8.447 0 0 0 -1.7-5.074h26.887a1 1 0 0 0 0-2h-28.987a8.449 8.449 0 0 0 -4.7-1.424h-22.33a3 3 0 0 0 -3 3v10.771h-1.283a4.128 4.128 0 0 0 -4.124 4.123v11.97a4.128 4.128 0 0 0 4.124 4.123h1.283v1.03q0 .967.065 1.921a24.046 24.046 0 0 0 13.513 20.023 25.708 25.708 0 0 0 11.465 2.729 25.192 25.192 0 0 0 13.835-4.162c8.141-5.333 12.112-6.452 14.01-6.452s5.874 1.121 14.03 6.458a25.212 25.212 0 0 0 25.281 1.426 24.048 24.048 0 0 0 13.512-20.018c.042-.636.065-1.278.065-1.925v-1.03h1.287a4.128 4.128 0 0 0 4.124-4.123v-11.97a4.128 4.128 0 0 0 -4.124-4.123zm-105.063-10.769a1 1 0 0 1 1-1h22.33a6.505 6.505 0 0 1 6.5 6.5v1.22a6.505 6.505 0 0 1 -6.5 6.5h-22.33a1 1 0 0 1 -1-1zm-3.283 28.985a2.126 2.126 0 0 1 -2.124-2.123v-11.97a2.126 2.126 0 0 1 2.124-2.123h1.283v16.216zm110.47-2.123a2.126 2.126 0 0 1 -2.124 2.123h-1.284v-16.216h1.284a2.126 2.126 0 0 1 2.124 2.123z"/><path d="m29.671 45.911a4.85 4.85 0 1 0 -4.85-4.85 4.855 4.855 0 0 0 4.85 4.85zm0-7.7a2.85 2.85 0 1 1 -2.85 2.85 2.853 2.853 0 0 1 2.85-2.85z"/></g></svg>