<?xml version="1.0" encoding="iso-8859-1"?>
<!-- Generator: Adobe Illustrator 19.0.0, SVG Export Plug-In . SVG Version: 6.00 Build 0)  -->
<svg version="1.1" id="Capa_1" xmlns="http://www.w3.org/2000/svg" xmlns:xlink="http://www.w3.org/1999/xlink" x="0px" y="0px"
	 viewBox="0 0 512 512" style="enable-background:new 0 0 512 512;" xml:space="preserve">
<path style="fill:#384949;" d="M91,196c0-90.901,74.099-166,165-166s165,75.099,165,166v30c0,2.316,0.59,4.437,1.492,6.379L451,226
	v-30C451,88.599,363.401,0,256,0S61,88.599,61,196v30l30-9.056V196z"/>
<path style="fill:#293939;" d="M421,196v30c0,2.316,0.59,4.437,1.492,6.379L451,226v-30C451,88.599,363.401,0,256,0v30
	C346.901,30,421,105.099,421,196z"/>
<path style="fill:#73BCFF;" d="M256,422c-24.901,0-45,20.099-45,45c0,24.899,20.099,45,45,45s45-20.101,45-45
	C301,442.099,280.901,422,256,422z"/>
<path style="fill:#293939;" d="M376,482h-90c-8.291,0-15-6.709-15-15s6.709-15,15-15h90c8.276,0,15-6.724,15-15v-30
	c0-8.291,6.709-15,15-15s15,6.709,15,15v30C421,461.814,400.814,482,376,482z"/>
<path style="fill:#3E5959;" d="M467,211h-31c-8.291,0-15,6.709-15,15v151c0,8.291,6.709,15,15,15h31c24.814,0,45-20.186,45-45v-91
	C512,231.186,491.814,211,467,211z"/>
<path style="fill:#4A696F;" d="M76,211H45c-24.814,0-45,20.186-45,45v91c0,24.814,20.186,45,45,45h31c8.291,0,15-6.709,15-15V226
	C91,217.709,84.291,211,76,211z"/>
<path style="fill:#3AAAFF;" d="M301,467c0,24.899-20.099,45-45,45v-90C280.901,422,301,442.099,301,467z"/>
<path style="fill:#73BCFF;" d="M106,422c-24.814,0-45-20.186-45-45V226c0-24.814,20.186-45,45-45s45,20.186,45,45v151
	C151,401.814,130.814,422,106,422z"/>
<path style="fill:#3AAAFF;" d="M406,422c-24.814,0-45-20.186-45-45V226c0-24.814,20.186-45,45-45s45,20.186,45,45v151
	C451,401.814,430.814,422,406,422z"/>
<g>
</g>
<g>
</g>
<g>
</g>
<g>
</g>
<g>
</g>
<g>
</g>
<g>
</g>
<g>
</g>
<g>
</g>
<g>
</g>
<g>
</g>
<g>
</g>
<g>
</g>
<g>
</g>
<g>
</g>
</svg>
