<svg height="512" viewBox="0 0 64 64" width="512" xmlns="http://www.w3.org/2000/svg"><g id="flat"><path d="m16 3h32v54h-32z" fill="#4c6cae"/><path d="m14 57h36v4h-36z" fill="#7cb8eb"/><path d="m20 7h24v4h-24z" fill="#7cb8eb"/><path d="m20 11h24v4h-24z" fill="#f4f4e6"/><path d="m20 46-4 2v-26l4 2z" fill="#7cb8eb"/><path d="m44 24 4-2v26l-4-2z" fill="#7cb8eb"/><path d="m20 57v-6l4-2h16l4 2v6z" fill="#f4f4e6"/><path d="m23 52h18v2h-18z" fill="#394d5c"/><path d="m20 15 4 4h16l4-4z" fill="#7cb8eb"/><path d="m31 26h2v2h-2z" fill="#f4f4e6"/><circle cx="32" cy="34" fill="#fcf05a" r="3"/><g fill="#f4f4e6"><circle cx="32" cy="43" r="2"/><path d="m31 22h2v2h-2z"/></g></g></svg>