<?xml version="1.0" encoding="iso-8859-1"?>
<!-- Generator: Adobe Illustrator 19.0.0, SVG Export Plug-In . SVG Version: 6.00 Build 0)  -->
<svg version="1.1" id="Capa_1" xmlns="http://www.w3.org/2000/svg" xmlns:xlink="http://www.w3.org/1999/xlink" x="0px" y="0px"
	 viewBox="0 0 480 480" style="enable-background:new 0 0 480 480;" xml:space="preserve">
<path style="fill:#E0E0E2;" d="M456,36H24c-8.837,0-16,7.163-16,16v16v240v32c0,8.837,7.163,16,16,16h432c8.837,0,16-7.163,16-16
	v-32V68V52C472,43.163,464.837,36,456,36z"/>
<path style="fill:#ACABB1;" d="M176,444h128l-32-88h-64L176,444z"/>
<path style="fill:#2488FF;" d="M8,68h464v240H8V68z"/>
<g>
	<path style="fill:#231F20;" d="M456,28H24C10.745,28,0,38.745,0,52v288c0,13.255,10.745,24,24,24h172.584L170.4,436H144
		c-4.418,0-8,3.582-8,8s3.582,8,8,8h192c4.418,0,8-3.582,8-8s-3.582-8-8-8h-26.4l-26.184-72H456c13.255,0,24-10.745,24-24V52
		C480,38.745,469.255,28,456,28z M292.576,436H187.424l26.176-72h52.8L292.576,436z M456,348H24c-4.418,0-8-3.582-8-8v-24h184
		c4.418,0,8-3.582,8-8s-3.582-8-8-8H16V76h392c4.418,0,8-3.582,8-8s-3.582-8-8-8H16v-8c0-4.418,3.582-8,8-8h432c4.418,0,8,3.582,8,8
		v8h-24c-4.418,0-8,3.582-8,8s3.582,8,8,8h24v224H280c-4.418,0-8,3.582-8,8s3.582,8,8,8h184v24C464,344.418,460.418,348,456,348z"/>
	<path style="fill:#231F20;" d="M248,300h-16c-4.418,0-8,3.582-8,8s3.582,8,8,8h16c4.418,0,8-3.582,8-8S252.418,300,248,300z"/>
</g>
<g>
</g>
<g>
</g>
<g>
</g>
<g>
</g>
<g>
</g>
<g>
</g>
<g>
</g>
<g>
</g>
<g>
</g>
<g>
</g>
<g>
</g>
<g>
</g>
<g>
</g>
<g>
</g>
<g>
</g>
</svg>
