<svg height="512" viewBox="0 0 512 512" width="512" xmlns="http://www.w3.org/2000/svg"><g id="Flat"><path d="m304 24v224l88 24v-192z" fill="#3ea7ff"/><path d="m256 32-72 32v233.375l72-29.625z" fill="#3ea7ff"/><path d="m304 64h-48v203.75l48-19.75z" fill="#2b7cd4"/><path d="m256 96h48v96h-48z" fill="#808080"/><path d="m184 64-32 64v48l32-16z" fill="#808080"/><path d="m184 272-32-96 32-16z" fill="#4d4d4d"/><path d="m304 480a75.89461 75.89461 0 0 0 -48 0v-80h48z" fill="#104f91"/><path d="m147.58621 229.51724-21.49438 26.868a32 32 0 0 0 -6.90166 17.33279l-5.72034 68.644a32 32 0 0 0 12.68947 28.25745l5.754 4.31552a63.99991 63.99991 0 0 1 18.84334 22.57833l33.24336 66.48667 72 16v-96l-80-48z" fill="#3ea7ff"/><path d="m160 200-16 8 16 99.25 24-9.875v-25.375z" fill="#2b7cd4"/><path d="m160 307.25v36.75l144-64 72 22.091v-34.455l-72-19.636z" fill="#104f91"/><path d="m392 307v44.33573a150.12 150.12 0 0 1 -87.99991 136.66427h-.00009l-4.77152-47.71523a35.85219 35.85219 0 0 0 -35.67427-32.28477h-.00011a115.777 115.777 0 0 1 -103.5541-63.99994v-.00006l144-64z" fill="#2b7cd4"/><g fill="#4d4d4d"><path d="m280 152h24v16h-24z"/><path d="m280 120h24v16h-24z"/></g></g></svg>