<svg height="512" viewBox="0 0 64 64" width="512" xmlns="http://www.w3.org/2000/svg"><g id="Gamming_Chair-2" data-name="Gamming Chair"><path d="m42.37 19.74a1.982 1.982 0 0 1 -.11-1.53l.96-2.86a4.012 4.012 0 0 0 -.97-4.1l-2.67-2.67a4 4 0 0 1 -.88-1.34l-1.2-2.98a2 2 0 0 0 -1.85-1.26h-7.3a2 2 0 0 0 -1.85 1.26l-1.2 2.98a4 4 0 0 1 -.88 1.34l-2.67 2.67a4.012 4.012 0 0 0 -.97 4.1l.96 2.86a1.982 1.982 0 0 1 -.11 1.53l-1.63 3.26v12a2.006 2.006 0 0 1 2-2h20a2.006 2.006 0 0 1 2 2v-12zm-16.72-5.9a1.5 1.5 0 0 1 -1.11-1.45 1.737 1.737 0 0 1 .05-.39 1.5 1.5 0 0 1 1.84-1.06l2.9.77a1.5 1.5 0 0 1 1.11 1.45 1.737 1.737 0 0 1 -.05.39 1.5 1.5 0 0 1 -1.84 1.06zm12.7 0-2.9.77a1.5 1.5 0 0 1 -1.84-1.06 1.737 1.737 0 0 1 -.05-.39 1.5 1.5 0 0 1 1.11-1.45l2.9-.77a1.5 1.5 0 0 1 1.84 1.06 1.737 1.737 0 0 1 .05.39 1.5 1.5 0 0 1 -1.11 1.45z" fill="#1e81ce"/><path d="m24 35v-12.236a.993.993 0 0 1 .106-.447l2.382-4.764a1 1 0 0 1 .894-.553h9.236a1 1 0 0 1 .894.553l2.382 4.764a.993.993 0 0 1 .106.447v12.236z" fill="#1a6fb0"/><circle cx="22" cy="59" fill="#898890" r="2"/><circle cx="42" cy="59" fill="#898890" r="2"/><path d="m44 53v2a2.015 2.015 0 0 1 -2 2 2.006 2.006 0 0 1 -2-2v-1a1 1 0 0 0 -1-1h-14a1 1 0 0 0 -1 1v1a2.015 2.015 0 0 1 -2 2 2.006 2.006 0 0 1 -2-2v-2a4 4 0 0 1 4-4h16a4 4 0 0 1 4 4z" fill="#d8d7da"/><path d="m36 45v4h-8v-4h2 4z" fill="#c6c5ca"/><g fill="#e6e7e8"><path d="m30 39h4v6h-4z"/><path d="m20 35v2h-4v-10h4z"/><path d="m48 27v10h-4v-2-8z"/></g><path d="m44 33v2a2.006 2.006 0 0 0 -2-2h-20a2.006 2.006 0 0 0 -2 2v-2a2.006 2.006 0 0 1 2-2h20a2.006 2.006 0 0 1 2 2z" fill="#1a6fb0"/><path d="m38 23v10h-12v-10l2-4h8z" fill="#5aaae7"/><path d="m26 31h12v2h-12z" fill="#1e81ce"/><path d="m16 27h4v2h-4z" fill="#d1d3d4"/><path d="m44 27h4v2h-4z" fill="#d1d3d4"/><path d="m30 39h4v2h-4z" fill="#d1d3d4"/><path d="m20 23v4h-4-2v-4z" fill="#1a6fb0"/><path d="m50 23v4h-2-4v-4z" fill="#1a6fb0"/><path d="m44 35v2a2.006 2.006 0 0 1 -2 2h-20a2.006 2.006 0 0 1 -2-2v-2a2.006 2.006 0 0 1 2-2h20a2.006 2.006 0 0 1 2 2z" fill="#3d9ae2"/><path d="m35.061 15.663a2.5 2.5 0 0 1 -.647-4.915l2.9-.776a2.5 2.5 0 1 1 1.286 4.828l-2.9.777a2.5 2.5 0 0 1 -.639.086zm2.9-3.777a.526.526 0 0 0 -.129.017l-2.9.777a.5.5 0 0 0 .259.966l2.9-.776a.5.5 0 0 0 -.13-.984z" fill="#1a6fb0"/><path d="m28.939 15.663a2.49 2.49 0 0 1 -.647-.085l-2.892-.778a2.5 2.5 0 1 1 1.293-4.829l2.9.776a2.5 2.5 0 0 1 -.647 4.915zm-2.9-3.777a.5.5 0 0 0 -.13.984l2.9.776a.5.5 0 0 0 .259-.966l-2.9-.777a.526.526 0 0 0 -.126-.017z" fill="#1a6fb0"/></g></svg>